<svg xmlns="http://www.w3.org/2000/svg" width="60px" height="50px" viewBox="0 0 60 50">
<style type="text/css">
	.st0{fill:#17469D;}
	.st1{fill:#8680BC;}
	.st2{fill:#01A9B4;}
	.st3{fill:#3AB449;}
	.st4{fill:#F6931D;}
	.st5{fill:#FED403;}
	.st6{fill:#ED0D6F;}
</style>
<g>
	<path class="st0" d="M21.2,25c0.1,0,0.3,0,0.4,0c0.3,0,0.6,0.1,0.9,0.2c0.6,0.2,1.2,0.6,1.5,1.2c0.7,1.1,0.9,2.3,0.4,3.6
		c-0.3,0.7-0.7,1.2-1.3,1.7c-0.4,0.3-0.6,0.7-0.8,1.1c-0.1,0.3-0.2,0.6-0.3,0.8c-0.1,0.2-0.2,0.5-0.1,0.7c0.1,0.2-0.1,0.4-0.4,0.3
		c-0.5-0.1-0.8-0.4-0.9-0.9c-0.2-0.5-0.1-1,0.1-1.4c0.1-0.3,0.3-0.6,0.4-0.9c0.1-0.2,0.1-0.4,0.1-0.6c0-0.2-0.1-0.3-0.3-0.2
		c-0.1,0-0.2,0.1-0.3,0.1c-0.9,0.7-1.8,1.2-2.8,1.6c-0.6,0.3-1.2,0.6-1.8,1c-0.1,0.1-0.3,0.2-0.4,0.2c-0.1,0-0.3,0-0.4,0
		c-0.5-0.2-0.6-0.6-0.2-1c0.3-0.3,0.7-0.4,1-0.7c0.5-0.3,1-0.6,1.5-1.1c0,0,0.1-0.1,0.1-0.1c0.1-0.1,0.1-0.2,0.1-0.3
		c-0.1-0.1-0.2-0.1-0.3-0.1c-0.5,0-1.1,0.1-1.6,0.2c-0.5,0.1-1,0.2-1.5,0.3c-0.2,0-0.4,0-0.6-0.1c-0.2-0.1-0.3-0.3-0.3-0.5
		c0-0.2,0.2-0.4,0.4-0.5c0.4-0.2,0.8-0.2,1.2-0.3c0.9-0.1,1.7-0.3,2.5-0.6c0,0,0.1,0,0.1,0c0.1,0,0.2-0.1,0.2-0.2
		c0-0.1-0.1-0.1-0.2-0.2c-0.6-0.2-1.2-0.3-1.8-0.4c-0.5-0.1-1.1-0.2-1.6-0.2c-0.1,0-0.2,0-0.2-0.1c-0.2-0.1-0.3-0.4-0.2-0.6
		c0.2-0.4,0.5-0.5,1-0.5c0.8,0.1,1.5,0.2,2.3,0.3c0.3,0,0.5,0.1,0.8,0c0.2-0.1,0.3-0.2,0.2-0.4c-0.1-0.2-0.2-0.3-0.3-0.3
		c-0.5-0.2-0.9-0.5-1.4-0.8c-0.2-0.2-0.5-0.2-0.7-0.4c-0.1-0.1-0.3-0.2-0.2-0.4c0-0.2,0.1-0.3,0.3-0.3c0.3-0.1,0.7-0.1,1,0.1
		c0.4,0.2,0.8,0.4,1.1,0.6c0.4,0.2,0.8,0.3,1.2,0.4c0.1,0,0.1,0,0.2,0c0.2,0,0.5,0,0.7,0c0.4-0.1,0.8-0.2,1.3-0.2
		C21.1,25,21.1,25.1,21.2,25z"/>
	<path class="st1" d="M24.9,17.6c0.2,0.1,0.3,0.3,0.5,0.4c0.6,0.5,1,1.2,1.1,2c0.1,0.7-0.1,1.4-0.4,2c-0.5,0.9-1.3,1.6-2.3,1.9
		c-0.2,0.1-0.5,0.1-0.7,0.1c-0.3,0-0.5,0-0.8,0c-0.3,0-0.6-0.1-1-0.1c-0.2,0-0.5,0-0.7,0.1c-0.4,0.2-0.7,0.3-1.1,0.4
		c-0.2,0-0.4,0.2-0.6,0.3c-0.2,0.2-0.4,0.2-0.5-0.1c-0.2-0.4-0.1-0.8,0.1-1.2c0.3-0.4,0.7-0.7,1.2-0.9c0.3-0.1,0.6-0.2,0.9-0.3
		c0.2-0.1,0.4-0.2,0.5-0.3c0.1-0.1,0.1-0.3,0-0.4c-0.1-0.1-0.2-0.1-0.3-0.2c-1.3-0.3-2.5-1-3.7-1.5c-0.4-0.2-0.8-0.3-1.2-0.5
		c-0.3-0.1-0.6-0.3-0.6-0.6c-0.1-0.5,0.2-0.7,0.6-0.7c0.4,0.1,0.8,0.3,1.2,0.4c0.5,0.2,1.1,0.4,1.6,0.5c0.1,0,0.2,0,0.2,0
		c0.1,0,0.2,0,0.3-0.1c0.1-0.1,0-0.2-0.1-0.3c-0.2-0.2-0.3-0.4-0.5-0.6c-0.5-0.5-1.1-0.9-1.7-1.4c-0.2-0.2-0.4-0.4-0.5-0.7
		c0-0.3,0.1-0.6,0.5-0.7c0.1,0,0.3,0,0.4,0.1c0.3,0.2,0.6,0.4,0.9,0.7c0.6,0.6,1.3,1.2,2.1,1.7c0,0,0.1,0,0.1,0.1
		c0.1,0,0.2,0.1,0.3,0c0.1-0.1,0-0.2,0-0.2c-0.2-0.6-0.5-1.1-0.8-1.7c-0.2-0.4-0.4-0.7-0.6-1.1c-0.1-0.1-0.1-0.2-0.2-0.3
		c-0.1-0.2-0.2-0.4,0-0.6c0.1-0.2,0.5-0.2,0.7-0.1c0.2,0.1,0.4,0.3,0.5,0.5c0.4,0.6,0.8,1.3,1.2,2c0.1,0.2,0.3,0.5,0.5,0.6
		c0.2,0.2,0.3,0.1,0.5-0.1c0.1-0.2,0.1-0.4,0-0.6c-0.1-0.5-0.1-1-0.2-1.5c0-0.3-0.1-0.5-0.1-0.8c0-0.3,0.3-0.5,0.5-0.4
		c0.4,0.2,0.6,0.5,0.7,0.9c0.1,0.5,0.2,1,0.2,1.5c0,0.1,0,0.2,0.1,0.3C24,16.7,24.3,17.2,24.9,17.6C24.9,17.6,24.9,17.6,24.9,17.6z"
		/>
	<path class="st2" d="M23.7,39.1c0.2-0.4,0.3-0.8,0.5-1.2c0-0.1,0-0.2-0.1-0.2c-0.1-0.1-0.2,0-0.2,0c-0.3,0.2-0.6,0.4-0.9,0.6
		c-0.1,0-0.2,0.1-0.2,0.2c-0.2,0.2-0.4,0.4-0.6,0.5c0,0-0.1,0.1-0.1,0.1c-0.1,0.1-0.1,0.2-0.2,0.2c-0.2,0.1-0.3,0.3-0.5,0.4l0,0
		c-0.1,0-0.1,0.1-0.1,0.1c-0.1,0.1-0.3,0.2-0.4,0.2c-0.3,0-0.4-0.2-0.5-0.5c0-0.3,0.1-0.5,0.2-0.7c0.1-0.1,0.2-0.3,0.4-0.4
		c0.1-0.1,0.2-0.1,0.2-0.2c0.4-0.3,0.7-0.7,1.1-1c0.2-0.2,0.4-0.4,0.5-0.6c0.2-0.3,0.1-0.4-0.2-0.5c-0.1,0-0.2,0-0.3,0
		c-0.3,0.2-0.6,0.3-0.9,0.4c-0.1,0-0.3,0.1-0.4,0.1c-0.2,0-0.3,0.1-0.5,0.2c-0.2,0.1-0.3,0.2-0.5,0.2c-0.3,0.1-0.5-0.1-0.5-0.4
		c0,0,0-0.1,0-0.1c0.1-0.4,0.4-0.7,0.8-0.8c0.1-0.1,0.2-0.1,0.4-0.1c0.8-0.2,1.6-0.6,2.1-1.4c0.2-0.3,0.4-0.6,0.5-0.9
		c0.2-0.4,0.4-0.8,0.7-1.1l0,0c0.1-0.2,0.3-0.3,0.4-0.4c0.3-0.2,0.6-0.4,0.9-0.5c0.8-0.2,1.5-0.1,2.3,0.1c0.5,0.2,1,0.5,1.4,0.8
		c0.1,0.1,0.2,0.1,0.2,0.2l0,0c0.2,0.1,0.3,0.3,0.4,0.5c0.1,0.1,0.2,0.2,0.2,0.4l0,0c0.1,0.2,0.2,0.3,0.2,0.5
		c0.2,0.6,0.2,1.2,0.3,1.9c0,0.1,0.1,0.2,0.1,0.3c0.2,0.4,0.5,0.7,0.7,1.2c0.1,0.2,0.2,0.4,0.5,0.5c0.2,0.1,0.2,0.3,0.1,0.5
		c-0.2,0.2-0.4,0.2-0.7,0.3c-0.7,0-1.2-0.3-1.6-0.9c-0.2-0.3-0.4-0.6-0.6-1c-0.1-0.2-0.3-0.3-0.4-0.4c-0.2-0.1-0.3-0.1-0.4,0.1
		c-0.1,0.1-0.1,0.3-0.1,0.4c0,1.1-0.2,2.1-0.5,3.1c-0.2,0.7-0.2,1.4-0.4,2.1c0,0.3-0.1,0.6-0.5,0.7c-0.4,0.2-0.8,0-0.8-0.5
		c0-0.4,0.1-0.7,0.1-1.1c0.1-0.7,0.2-1.3,0.1-2c0-0.1,0-0.1,0-0.2c0-0.1-0.1-0.2-0.2-0.2c-0.1,0-0.2,0-0.3,0.1
		c0,0.1-0.1,0.1-0.1,0.1l0,0c0,0,0,0.1-0.1,0.1l0,0c0,0.1-0.1,0.1-0.1,0.2c-0.1,0.1-0.2,0.2-0.2,0.4c-0.2,0.3-0.3,0.7-0.5,1
		c0,0,0,0.1-0.1,0.1c0,0,0,0,0,0c0,0,0,0.1-0.1,0.1c-0.2,0.3-0.3,0.6-0.5,0.8c-0.2,0.2-0.3,0.4-0.6,0.4c-0.4,0-0.7-0.3-0.6-0.7
		c0.1-0.2,0.2-0.5,0.3-0.7c0-0.1,0.1-0.2,0.2-0.3c0.1-0.1,0.1-0.2,0.2-0.3c0.2-0.2,0.3-0.5,0.4-0.8C23.6,39.3,23.7,39.2,23.7,39.1z"
		/>
	<path class="st3" d="M32.6,32C32.6,32,32.6,31.9,32.6,32c0.2,0,0.4-0.2,0.5-0.2c0.2-0.1,0.5-0.2,0.8-0.2c0.1,0,0.1,0,0.1-0.1
		c0.8-0.2,1.6,0,2.4,0.4c0.1,0.1,0.2,0.1,0.4,0.2c0.3,0.1,0.5,0.4,0.8,0.5l0,0c0.1,0.1,0.3,0.2,0.4,0.2c0.5,0,1,0.1,1.4,0.2
		c0.2,0,0.4,0,0.6-0.1c0.3,0,0.4,0.1,0.4,0.4c0,0.1-0.1,0.2-0.1,0.3l0,0c0,0,0,0.1-0.1,0.1c-0.3,0.5-0.8,0.6-1.3,0.7
		c-0.5,0-0.9-0.1-1.3-0.1c-0.3,0-0.5-0.1-0.8,0c-0.2,0.1-0.3,0.2-0.2,0.4c0,0.1,0.1,0.2,0.2,0.2c0.8,0.7,1.5,1.4,2.1,2.3
		c0.5,0.6,1,1.1,1.5,1.7c0.2,0.3,0.4,0.6,0.3,0.9c-0.1,0.3-0.4,0.4-0.7,0.3c-0.2-0.1-0.3-0.2-0.4-0.4c-0.2-0.2-0.5-0.5-0.7-0.7
		c-0.1-0.1-0.1-0.2-0.2-0.2c-0.1-0.1-0.2-0.2-0.3-0.2c-0.1-0.1-0.2-0.2-0.2-0.2c-0.2-0.1-0.4-0.3-0.6-0.4c-0.1,0-0.1-0.1-0.2-0.1
		c-0.1,0-0.2,0-0.2,0.1c-0.1,0.1-0.1,0.1,0,0.2c0.1,0.5,0.3,0.9,0.5,1.4c0.2,0.4,0.4,0.9,0.6,1.3c0.1,0.2,0.2,0.4,0.2,0.7
		c0,0.2,0,0.3-0.1,0.5c-0.2,0.3-0.6,0.3-0.9,0c-0.1-0.1-0.2-0.3-0.3-0.5c-0.1-0.1-0.1-0.2-0.1-0.2l0,0c-0.1-0.2-0.2-0.5-0.3-0.7
		c0-0.1-0.1-0.2-0.1-0.4c-0.1-0.4-0.3-0.8-0.5-1.1c-0.1-0.2-0.2-0.4-0.3-0.6c-0.1-0.1-0.1-0.2-0.2-0.2c-0.2-0.1-0.2-0.1-0.3,0.2
		c0,0.3,0,0.7,0,1c0,0.7,0.1,1.4,0.2,2.1c0,0.2,0,0.4,0,0.6c0,0.3-0.3,0.5-0.6,0.4c-0.4-0.1-0.6-0.4-0.6-0.8
		C34.1,41,34,40.3,34,39.6c0-0.3,0-0.6-0.1-0.9c0-0.1-0.1-0.1-0.1-0.2c-0.1-0.2-0.3-0.2-0.4-0.1c-0.2,0.1-0.2,0.3-0.3,0.5
		c-0.1,0.2-0.1,0.5-0.2,0.7c0,0.1,0,0.1-0.1,0.2c0,0,0,0,0,0c-0.1,0.2-0.1,0.4-0.2,0.6c-0.1,0.2-0.1,0.5-0.2,0.7
		c-0.1,0.3-0.5,0.4-0.7,0.1c-0.3-0.3-0.3-0.7-0.2-1.1c0.1-0.3,0.2-0.7,0.3-1c0.2-0.5,0.2-1,0.1-1.6c-0.1-0.5-0.3-1-0.5-1.4
		c-0.3-0.7-0.4-1.4-0.3-2.2c0.1-0.4,0.2-0.7,0.4-1c0.2-0.3,0.4-0.6,0.7-0.8C32.3,32.1,32.4,32,32.6,32z"/>
	<path class="st4" d="M37,24c-0.4-0.1-0.8-0.3-1.1-0.5c-0.4-0.2-0.7-0.5-0.9-0.9l0,0c-0.2-0.3-0.4-0.6-0.5-1
		c-0.1-0.3-0.2-0.5-0.2-0.8c-0.1-0.5,0-1.1,0.2-1.6c0-0.1,0-0.1,0-0.2c0.1-0.3,0.2-0.5,0.3-0.8c0-0.2,0.1-0.3,0.1-0.5
		c0-0.2,0-0.4-0.1-0.6c0-0.2-0.1-0.4-0.1-0.6c0-0.3,0-0.7-0.2-0.9c0,0,0-0.1,0-0.1c0-0.2,0.1-0.3,0.3-0.3c0.4-0.1,0.7,0,1.1,0.3
		c0,0,0.1,0.1,0.1,0.1c0,0.1,0.1,0.1,0.1,0.2c0.2,0.3,0.4,0.6,0.4,1c0,0.4,0.1,0.8,0.1,1.1c0,0.2,0.1,0.4,0.2,0.6
		c0.1,0.2,0.3,0.2,0.5,0.1c0.1-0.1,0.1-0.1,0.2-0.2c0.3-0.5,0.5-1,0.8-1.4c0.1-0.3,0.3-0.5,0.5-0.7c0,0,0,0,0.1-0.1
		c0.1-0.1,0.1-0.2,0.2-0.3c0.1-0.1,0.2-0.2,0.2-0.2c0,0,0,0,0,0c0.2-0.2,0.3-0.5,0.5-0.7c0,0,0.1,0,0.1-0.1c0.1-0.2,0.3-0.4,0.4-0.7
		c0.2-0.3,0.4-0.6,0.9-0.6c0.1,0,0.2,0,0.3,0.1c0.3,0.1,0.4,0.5,0.2,0.7c-0.1,0.2-0.2,0.4-0.3,0.5l0,0c-0.2,0.3-0.3,0.5-0.5,0.8
		c-0.3,0.5-0.6,0.9-0.7,1.5c0,0,0,0.1,0,0.1c0,0.2,0.1,0.4,0.4,0.3c0.3-0.2,0.6-0.4,0.9-0.6c0.3-0.2,0.5-0.5,0.9-0.7
		c0.3-0.2,0.5-0.4,0.8-0.6c0.2-0.1,0.4-0.2,0.6-0.2c0.3,0,0.5,0.1,0.6,0.4c0.1,0.2,0,0.5-0.2,0.6c-0.1,0-0.1,0.1-0.1,0.1
		c-0.1,0.1-0.1,0.1-0.2,0.2c-0.4,0.3-0.8,0.6-1.2,0.9c0,0,0,0-0.1,0.1c-0.1,0.1-0.1,0.1-0.2,0.1c-0.2,0.2-0.4,0.3-0.6,0.5
		c-0.2,0.2-0.4,0.4-0.6,0.5c0,0,0,0,0,0c-0.1,0.1-0.1,0.1-0.1,0.2c0,0.1,0.1,0.1,0.2,0.1c0.5-0.1,0.9-0.2,1.4-0.3c0,0,0.1,0,0.1-0.1
		c0.5-0.2,1.1-0.3,1.6-0.5c0,0,0.1,0,0.1,0c0.1,0,0.2,0,0.3-0.1c0.3,0,0.5,0.1,0.5,0.4c0,0.1,0,0.2-0.1,0.3c0,0,0,0,0,0
		c-0.1,0.1-0.2,0.2-0.3,0.3c-0.3,0.2-0.7,0.3-1.1,0.4c-0.6,0.2-1.1,0.3-1.7,0.5c-0.2,0.1-0.3,0.1-0.5,0.3c-0.1,0.1-0.1,0.3,0,0.4
		c0.2,0.2,0.5,0.2,0.8,0.2c0.4,0,0.8,0.1,1.2,0.1c0.2,0,0.4,0,0.6,0c0.2,0,0.4,0,0.5,0.1c0.2,0.1,0.3,0.3,0.2,0.5
		c-0.2,0.3-0.4,0.4-0.8,0.5c-0.3,0-0.6,0-0.9,0c-0.4,0-0.8-0.1-1.2,0c-0.2,0-0.5,0.1-0.7,0.2c0,0-0.1,0-0.1,0
		c-0.4,0.1-0.6,0.3-0.9,0.5c-0.4,0.3-0.9,0.7-1.4,0.9c-0.5,0.2-1.1,0.3-1.6,0.2C37.1,24,37.1,24,37,24z"/>
	<path class="st5" d="M44.1,27.9c-0.1,0-0.2,0.1-0.4,0.1c-0.1,0.1-0.2,0.1-0.2,0.2c0,0.1,0.1,0.2,0.2,0.2c0.5,0.2,0.9,0.4,1.4,0.5
		c0.4,0.1,0.8,0.2,1.2,0.3c0.1,0,0.1,0,0.2,0c0.2,0.1,0.3,0.1,0.5,0.2l0,0c0,0,0.1,0,0.1,0.1c0.1,0.1,0.2,0.2,0.3,0.3
		c0.2,0.4-0.1,0.8-0.6,0.8c-0.4,0-0.8-0.1-1.2-0.3c-0.7-0.2-1.3-0.4-2-0.5c-0.2,0-0.4-0.1-0.6-0.1c-0.1,0-0.2,0-0.2,0.1
		c0,0.1,0,0.2,0.1,0.2c0.3,0.3,0.7,0.6,1,0.9c0.2,0.1,0.4,0.3,0.6,0.4c0.2,0.1,0.3,0.3,0.6,0.3c0.3,0.2,0.5,0.3,0.8,0.5
		c0.2,0.2,0.2,0.4,0.1,0.6c0,0.1-0.1,0.1-0.2,0.1c-0.1,0-0.2,0.1-0.3,0.1c-0.2,0-0.5,0-0.7-0.1c-0.3-0.2-0.5-0.3-0.8-0.5
		c-0.2-0.1-0.3-0.3-0.5-0.4c-0.2-0.1-0.4-0.2-0.5-0.4c0,0-0.1,0-0.1-0.1c0,0,0,0,0,0c0-0.1-0.1-0.1-0.2-0.1l0,0
		c-0.1-0.1-0.2-0.1-0.2-0.1c-0.1,0-0.2-0.1-0.3-0.1c-0.2-0.1-0.4,0.1-0.4,0.3c0,0.1,0,0.2,0.1,0.4c0,0.1,0.1,0.1,0.1,0.2
		c0.2,0.3,0.3,0.5,0.5,0.7c0,0,0,0.1,0.1,0.1c0.1,0.1,0.1,0.2,0.2,0.3c0.1,0.1,0.1,0.2,0.3,0.3c0,0,0,0,0,0c0,0.1,0.1,0.1,0.1,0.2
		c0.1,0.1,0.1,0.2,0.2,0.3c0.1,0.2,0,0.3-0.1,0.4c-0.2,0.1-0.4,0.1-0.6,0c-0.1-0.1-0.3-0.2-0.4-0.3c-0.1-0.1-0.1-0.2-0.2-0.2
		c0,0,0,0-0.1-0.1c-0.1-0.1-0.2-0.2-0.2-0.3c-0.1-0.1-0.2-0.2-0.2-0.4c-0.1-0.1-0.1-0.2-0.2-0.3l0,0c-0.1-0.1-0.1-0.2-0.2-0.2
		c0,0-0.1-0.1-0.1-0.1c-0.4-0.3-0.8-0.6-1.3-0.7c-0.7-0.2-1.4-0.3-2-0.8c-0.1-0.1-0.3-0.2-0.4-0.3c-0.2-0.2-0.4-0.4-0.5-0.6
		c0-0.1-0.1-0.2-0.1-0.3c-0.3-0.6-0.3-1.3-0.2-1.9c0.1-0.8,0.4-1.5,0.9-2.1c0.1-0.2,0.3-0.3,0.4-0.4c0,0,0.1,0,0.1-0.1
		c0.3-0.2,0.5-0.3,0.8-0.5c0.2-0.1,0.5-0.2,0.7-0.3c0.2-0.1,0.5-0.2,0.7-0.3c0,0,0,0,0,0c0,0,0,0,0.1,0c0.1,0,0.2-0.2,0.3-0.3
		c0.2-0.3,0.5-0.5,0.7-0.8c0.1-0.1,0.2-0.2,0.3-0.3c0,0,0,0,0-0.1c0-0.1,0-0.1,0.1-0.2c0.1-0.3,0.2-0.3,0.5-0.2
		c0.1,0.1,0.2,0.2,0.3,0.2c0,0,0,0,0,0c0.4,0.7,0.1,1.5-0.3,1.9c-0.1,0.1-0.3,0.3-0.4,0.4c-0.1,0.1-0.2,0.2-0.3,0.3l0,0
		c0,0,0,0-0.1,0c-0.1,0-0.2,0.1-0.3,0.2c0,0,0,0,0,0c-0.2,0.1-0.2,0.3-0.2,0.5c0,0.1,0.1,0.3,0.3,0.3c0.2,0,0.4,0,0.5,0
		c0.4-0.1,0.7-0.1,1.1-0.2c0.5-0.1,1,0,1.5,0c0.8,0,1.7,0,2.5-0.1c0.5,0,0.8,0.1,0.9,0.4c0.2,0.3,0,0.6-0.3,0.7
		c-0.3,0.1-0.6,0.1-0.8,0.1c-0.4,0-0.8,0.1-1.2,0.1c-0.1,0-0.2,0-0.3,0.1l0,0C44.5,27.8,44.3,27.8,44.1,27.9z"/>
	<path class="st6" d="M32.6,19.7c-0.4,0.3-0.9,0.5-1.4,0.6c-0.6,0.1-1.2,0.1-1.8-0.1c0,0-0.1,0-0.1,0c-0.1-0.1-0.3-0.1-0.4-0.2
		c-0.4-0.1-0.7-0.4-1-0.7c-0.1-0.1-0.1-0.1-0.2-0.1c-0.1-0.1-0.2-0.2-0.3-0.4c-0.1-0.2-0.2-0.3-0.3-0.5c-0.2-0.5-0.5-1-1.1-1.2l0,0
		c0-0.1-0.1-0.1-0.2-0.1c-0.2-0.1-0.3-0.2-0.4-0.3c-0.2-0.2-0.4-0.3-0.7-0.4c-0.1-0.1-0.3,0-0.4-0.1c-0.1-0.2-0.1-0.3,0-0.4
		c0.3-0.4,0.6-0.6,1.1-0.6c0.6,0,1.1,0.2,1.6,0.6c0.3,0.2,0.6,0.5,1,0.6c0.1,0,0.1,0,0.2,0c0.2-0.1,0.3-0.3,0.2-0.5
		c-0.1-0.3-0.2-0.5-0.3-0.7c-0.3-0.6-0.4-1.3-0.6-1.9c-0.2-0.8-0.4-1.6-0.7-2.4c-0.1-0.2-0.1-0.3-0.1-0.5c0-0.2,0.1-0.4,0.2-0.6
		c0.2-0.1,0.3-0.2,0.5-0.1c0.1,0,0.2,0.2,0.3,0.3c0,0,0,0.1,0.1,0.1c0.1,0.3,0.2,0.5,0.3,0.8c0.1,0.4,0.3,0.8,0.4,1.2
		c0.1,0.3,0.2,0.6,0.4,0.8C29,13,29,13,29.1,13c0.2,0.1,0.3,0.1,0.4-0.1c0.1-0.2,0.1-0.4,0.1-0.6c0-0.1,0-0.2,0-0.3
		c0-0.8,0-1.6,0.1-2.4c0-0.3,0.1-0.5,0.3-0.7c0.3-0.3,0.8-0.1,0.9,0.2c0.1,0.4,0.1,0.9,0,1.3c-0.1,0.9-0.1,1.8,0,2.6
		c0,0,0,0.1,0,0.1c0,0.1,0.1,0.2,0.2,0.2c0.1,0,0.2-0.1,0.2-0.1c0.3-0.4,0.5-0.9,0.7-1.3c0.2-0.6,0.4-1.2,0.7-1.7
		c0-0.1,0.1-0.2,0.2-0.3c0.1-0.2,0.4-0.2,0.6-0.1c0.1,0.1,0.3,0.3,0.3,0.5c0,0.1,0,0.3,0,0.4c-0.1,0.3-0.2,0.6-0.3,1
		c-0.1,0.4-0.3,0.8-0.5,1.3c-0.1,0.3-0.2,0.5-0.2,0.8c0,0.1,0,0.3,0.1,0.4c0.1,0.1,0.3,0,0.4,0c0.1,0,0.2-0.1,0.3-0.2
		c0.2-0.2,0.4-0.5,0.6-0.7c0.2-0.1,0.3-0.3,0.5-0.5c0.2-0.2,0.4-0.4,0.6-0.6c0.1-0.1,0.2-0.2,0.4-0.1c0.2,0.1,0.2,0.2,0.3,0.3
		c0.1,0.3,0,0.6-0.2,0.8c0,0,0,0.1-0.1,0.1l0,0c-0.1,0.1-0.2,0.2-0.4,0.4c-0.2,0.3-0.5,0.5-0.7,0.7c0,0,0,0,0,0.1
		c-0.2,0.3-0.3,0.7-0.5,1c0,0.1,0,0.1-0.1,0.2c-0.1,0.3-0.1,0.6-0.1,0.9c-0.1,0.3,0,0.6,0,0.8c0,0.5-0.2,0.9-0.4,1.3
		c-0.1,0.2-0.3,0.4-0.4,0.6C32.8,19.5,32.7,19.6,32.6,19.7z"/>
</g>
</svg>
